<mxfile host="app.diagrams.net" modified="2024-05-15T14:23:53.286Z" agent="Mozilla/5.0 (X11; Linux x86_64) AppleWebKit/537.36 (KHTML, like Gecko) Chrome/120.0.0.0 Safari/537.36" etag="l2XJv17UhXqq2dxdLMhl" version="24.3.1" type="device">
  <diagram name="Page-1" id="90a13364-a465-7bf4-72fc-28e22215d7a0">
    <mxGraphModel dx="1382" dy="818" grid="1" gridSize="10" guides="1" tooltips="1" connect="1" arrows="1" fold="1" page="1" pageScale="1.5" pageWidth="1169" pageHeight="826" background="none" math="0" shadow="0">
      <root>
        <mxCell id="0" style=";html=1;" />
        <mxCell id="1" style=";html=1;" parent="0" />
        <mxCell id="SPgHDlQlOfWEkfmcVzRH-35" value="" style="rounded=1;whiteSpace=wrap;html=1;" vertex="1" parent="1">
          <mxGeometry x="390" y="70" width="1280" height="760" as="geometry" />
        </mxCell>
        <mxCell id="SPgHDlQlOfWEkfmcVzRH-33" value="&lt;font style=&quot;font-size: 20px;&quot;&gt;&lt;b&gt;Training phase&lt;/b&gt;&lt;/font&gt;" style="rounded=1;whiteSpace=wrap;html=1;fillColor=#fff2cc;strokeColor=#d6b656;labelPosition=center;verticalLabelPosition=top;align=center;verticalAlign=bottom;" vertex="1" parent="1">
          <mxGeometry x="430" y="110" width="1210" height="690" as="geometry" />
        </mxCell>
        <mxCell id="3a17f1ce550125da-2" value="Particle Swarm Optimization (Hyper-parameter tuning and feature selection)" style="whiteSpace=wrap;html=1;shadow=1;fontSize=18;fillColor=#f5f5f5;strokeColor=#666666;" parent="1" vertex="1">
          <mxGeometry x="637" y="280" width="170" height="280" as="geometry" />
        </mxCell>
        <mxCell id="SPgHDlQlOfWEkfmcVzRH-5" value="" style="edgeStyle=orthogonalEdgeStyle;rounded=0;orthogonalLoop=1;jettySize=auto;html=1;" edge="1" parent="1" source="3a17f1ce550125da-9" target="3a17f1ce550125da-2">
          <mxGeometry relative="1" as="geometry">
            <Array as="points">
              <mxPoint x="630" y="506" />
              <mxPoint x="630" y="506" />
            </Array>
          </mxGeometry>
        </mxCell>
        <mxCell id="3a17f1ce550125da-9" value="KNN" style="whiteSpace=wrap;html=1;shadow=1;fontSize=18;fillColor=#f5f5f5;strokeColor=#666666;" parent="1" vertex="1">
          <mxGeometry x="460" y="476" width="120" height="60" as="geometry" />
        </mxCell>
        <mxCell id="SPgHDlQlOfWEkfmcVzRH-4" value="" style="edgeStyle=orthogonalEdgeStyle;rounded=0;orthogonalLoop=1;jettySize=auto;html=1;" edge="1" parent="1" source="SPgHDlQlOfWEkfmcVzRH-1" target="3a17f1ce550125da-2">
          <mxGeometry relative="1" as="geometry">
            <Array as="points">
              <mxPoint x="630" y="416" />
              <mxPoint x="630" y="416" />
            </Array>
          </mxGeometry>
        </mxCell>
        <mxCell id="SPgHDlQlOfWEkfmcVzRH-1" value="ANN" style="whiteSpace=wrap;html=1;shadow=1;fontSize=18;fillColor=#f5f5f5;strokeColor=#666666;" vertex="1" parent="1">
          <mxGeometry x="460" y="386" width="120" height="60" as="geometry" />
        </mxCell>
        <mxCell id="SPgHDlQlOfWEkfmcVzRH-3" value="" style="edgeStyle=orthogonalEdgeStyle;rounded=0;orthogonalLoop=1;jettySize=auto;html=1;" edge="1" parent="1" source="SPgHDlQlOfWEkfmcVzRH-2" target="3a17f1ce550125da-2">
          <mxGeometry relative="1" as="geometry">
            <Array as="points">
              <mxPoint x="630" y="326" />
              <mxPoint x="630" y="326" />
            </Array>
          </mxGeometry>
        </mxCell>
        <mxCell id="SPgHDlQlOfWEkfmcVzRH-2" value="XGBoost" style="whiteSpace=wrap;html=1;shadow=1;fontSize=18;fillColor=#f5f5f5;strokeColor=#666666;" vertex="1" parent="1">
          <mxGeometry x="460" y="296" width="120" height="60" as="geometry" />
        </mxCell>
        <mxCell id="SPgHDlQlOfWEkfmcVzRH-7" value="Optimized XGBoost" style="whiteSpace=wrap;html=1;shadow=1;fontSize=18;fillColor=#f5f5f5;strokeColor=#666666;" vertex="1" parent="1">
          <mxGeometry x="890" y="296" width="120" height="60" as="geometry" />
        </mxCell>
        <mxCell id="SPgHDlQlOfWEkfmcVzRH-8" value="Optimized KNN" style="whiteSpace=wrap;html=1;shadow=1;fontSize=18;fillColor=#f5f5f5;strokeColor=#666666;" vertex="1" parent="1">
          <mxGeometry x="890" y="388" width="120" height="60" as="geometry" />
        </mxCell>
        <mxCell id="SPgHDlQlOfWEkfmcVzRH-21" style="edgeStyle=orthogonalEdgeStyle;rounded=0;orthogonalLoop=1;jettySize=auto;html=1;exitX=1;exitY=0.5;exitDx=0;exitDy=0;entryX=0;entryY=0.75;entryDx=0;entryDy=0;" edge="1" parent="1" source="SPgHDlQlOfWEkfmcVzRH-9" target="SPgHDlQlOfWEkfmcVzRH-13">
          <mxGeometry relative="1" as="geometry">
            <Array as="points">
              <mxPoint x="1060" y="506" />
              <mxPoint x="1060" y="670" />
            </Array>
          </mxGeometry>
        </mxCell>
        <mxCell id="SPgHDlQlOfWEkfmcVzRH-9" value="Optimized ANN" style="whiteSpace=wrap;html=1;shadow=1;fontSize=18;fillColor=#f5f5f5;strokeColor=#666666;" vertex="1" parent="1">
          <mxGeometry x="890" y="476" width="120" height="60" as="geometry" />
        </mxCell>
        <mxCell id="SPgHDlQlOfWEkfmcVzRH-10" value="" style="edgeStyle=orthogonalEdgeStyle;rounded=0;orthogonalLoop=1;jettySize=auto;html=1;entryX=0;entryY=0.5;entryDx=0;entryDy=0;" edge="1" parent="1" target="SPgHDlQlOfWEkfmcVzRH-7">
          <mxGeometry relative="1" as="geometry">
            <mxPoint x="810" y="325.52" as="sourcePoint" />
            <mxPoint x="867" y="325.52" as="targetPoint" />
            <Array as="points">
              <mxPoint x="860" y="326" />
            </Array>
          </mxGeometry>
        </mxCell>
        <mxCell id="SPgHDlQlOfWEkfmcVzRH-11" value="" style="edgeStyle=orthogonalEdgeStyle;rounded=0;orthogonalLoop=1;jettySize=auto;html=1;entryX=0;entryY=0.5;entryDx=0;entryDy=0;" edge="1" parent="1">
          <mxGeometry relative="1" as="geometry">
            <mxPoint x="810" y="415.52" as="sourcePoint" />
            <mxPoint x="890" y="416" as="targetPoint" />
            <Array as="points">
              <mxPoint x="860" y="416" />
            </Array>
          </mxGeometry>
        </mxCell>
        <mxCell id="SPgHDlQlOfWEkfmcVzRH-12" value="" style="edgeStyle=orthogonalEdgeStyle;rounded=0;orthogonalLoop=1;jettySize=auto;html=1;entryX=0;entryY=0.5;entryDx=0;entryDy=0;" edge="1" parent="1">
          <mxGeometry relative="1" as="geometry">
            <mxPoint x="810" y="505.52" as="sourcePoint" />
            <mxPoint x="890" y="506" as="targetPoint" />
            <Array as="points">
              <mxPoint x="860" y="506" />
            </Array>
          </mxGeometry>
        </mxCell>
        <mxCell id="SPgHDlQlOfWEkfmcVzRH-13" value="Particle Swarm Optimization (Weights optimization)" style="whiteSpace=wrap;html=1;shadow=1;fontSize=18;fillColor=#f5f5f5;strokeColor=#666666;" vertex="1" parent="1">
          <mxGeometry x="1210" y="460" width="170" height="280" as="geometry" />
        </mxCell>
        <mxCell id="SPgHDlQlOfWEkfmcVzRH-16" style="edgeStyle=orthogonalEdgeStyle;rounded=0;orthogonalLoop=1;jettySize=auto;html=1;exitX=0.5;exitY=1;exitDx=0;exitDy=0;" edge="1" parent="1" source="SPgHDlQlOfWEkfmcVzRH-14" target="3a17f1ce550125da-2">
          <mxGeometry relative="1" as="geometry" />
        </mxCell>
        <mxCell id="SPgHDlQlOfWEkfmcVzRH-14" value="Train dataset" style="whiteSpace=wrap;html=1;shadow=1;fontSize=18;fillColor=#f5f5f5;strokeColor=#666666;" vertex="1" parent="1">
          <mxGeometry x="550" y="140" width="120" height="60" as="geometry" />
        </mxCell>
        <mxCell id="SPgHDlQlOfWEkfmcVzRH-17" value="" style="edgeStyle=orthogonalEdgeStyle;rounded=0;orthogonalLoop=1;jettySize=auto;html=1;" edge="1" parent="1" source="SPgHDlQlOfWEkfmcVzRH-15" target="3a17f1ce550125da-2">
          <mxGeometry relative="1" as="geometry" />
        </mxCell>
        <mxCell id="SPgHDlQlOfWEkfmcVzRH-15" value="Validation dataset" style="whiteSpace=wrap;html=1;shadow=1;fontSize=18;fillColor=#f5f5f5;strokeColor=#666666;" vertex="1" parent="1">
          <mxGeometry x="750" y="140" width="120" height="60" as="geometry" />
        </mxCell>
        <mxCell id="SPgHDlQlOfWEkfmcVzRH-20" style="edgeStyle=orthogonalEdgeStyle;rounded=0;orthogonalLoop=1;jettySize=auto;html=1;exitX=1;exitY=0.5;exitDx=0;exitDy=0;entryX=0.002;entryY=0.109;entryDx=0;entryDy=0;entryPerimeter=0;" edge="1" parent="1" source="SPgHDlQlOfWEkfmcVzRH-7" target="SPgHDlQlOfWEkfmcVzRH-13">
          <mxGeometry relative="1" as="geometry" />
        </mxCell>
        <mxCell id="SPgHDlQlOfWEkfmcVzRH-22" style="edgeStyle=orthogonalEdgeStyle;rounded=0;orthogonalLoop=1;jettySize=auto;html=1;exitX=1;exitY=0.5;exitDx=0;exitDy=0;entryX=0.002;entryY=0.445;entryDx=0;entryDy=0;entryPerimeter=0;" edge="1" parent="1" source="SPgHDlQlOfWEkfmcVzRH-8" target="SPgHDlQlOfWEkfmcVzRH-13">
          <mxGeometry relative="1" as="geometry">
            <Array as="points">
              <mxPoint x="1090" y="418" />
              <mxPoint x="1090" y="585" />
            </Array>
          </mxGeometry>
        </mxCell>
        <mxCell id="SPgHDlQlOfWEkfmcVzRH-25" style="edgeStyle=orthogonalEdgeStyle;rounded=0;orthogonalLoop=1;jettySize=auto;html=1;exitX=0.5;exitY=1;exitDx=0;exitDy=0;" edge="1" parent="1" source="SPgHDlQlOfWEkfmcVzRH-23" target="SPgHDlQlOfWEkfmcVzRH-13">
          <mxGeometry relative="1" as="geometry">
            <Array as="points">
              <mxPoint x="1210" y="405" />
              <mxPoint x="1300" y="405" />
            </Array>
          </mxGeometry>
        </mxCell>
        <mxCell id="SPgHDlQlOfWEkfmcVzRH-23" value="Train dataset" style="whiteSpace=wrap;html=1;shadow=1;fontSize=18;fillColor=#f5f5f5;strokeColor=#666666;" vertex="1" parent="1">
          <mxGeometry x="1150" y="290" width="120" height="60" as="geometry" />
        </mxCell>
        <mxCell id="SPgHDlQlOfWEkfmcVzRH-26" style="edgeStyle=orthogonalEdgeStyle;rounded=0;orthogonalLoop=1;jettySize=auto;html=1;exitX=0.5;exitY=1;exitDx=0;exitDy=0;" edge="1" parent="1" source="SPgHDlQlOfWEkfmcVzRH-24">
          <mxGeometry relative="1" as="geometry">
            <mxPoint x="1300" y="460" as="targetPoint" />
            <Array as="points">
              <mxPoint x="1410" y="405" />
              <mxPoint x="1301" y="405" />
              <mxPoint x="1301" y="460" />
            </Array>
          </mxGeometry>
        </mxCell>
        <mxCell id="SPgHDlQlOfWEkfmcVzRH-24" value="Validation dataset" style="whiteSpace=wrap;html=1;shadow=1;fontSize=18;fillColor=#f5f5f5;strokeColor=#666666;" vertex="1" parent="1">
          <mxGeometry x="1350" y="290" width="120" height="60" as="geometry" />
        </mxCell>
        <mxCell id="SPgHDlQlOfWEkfmcVzRH-27" value="W1 for XGBoost" style="whiteSpace=wrap;html=1;shadow=1;fontSize=18;fillColor=#f5f5f5;strokeColor=#666666;" vertex="1" parent="1">
          <mxGeometry x="1460" y="490" width="120" height="60" as="geometry" />
        </mxCell>
        <mxCell id="SPgHDlQlOfWEkfmcVzRH-28" value="W2 for ANN" style="whiteSpace=wrap;html=1;shadow=1;fontSize=18;fillColor=#f5f5f5;strokeColor=#666666;" vertex="1" parent="1">
          <mxGeometry x="1460" y="590" width="120" height="60" as="geometry" />
        </mxCell>
        <mxCell id="SPgHDlQlOfWEkfmcVzRH-29" value="W3 for KNN" style="whiteSpace=wrap;html=1;shadow=1;fontSize=18;fillColor=#f5f5f5;strokeColor=#666666;" vertex="1" parent="1">
          <mxGeometry x="1460" y="680" width="120" height="60" as="geometry" />
        </mxCell>
        <mxCell id="SPgHDlQlOfWEkfmcVzRH-30" value="" style="edgeStyle=orthogonalEdgeStyle;rounded=0;orthogonalLoop=1;jettySize=auto;html=1;entryX=0;entryY=0.5;entryDx=0;entryDy=0;" edge="1" parent="1">
          <mxGeometry relative="1" as="geometry">
            <mxPoint x="1380" y="519.66" as="sourcePoint" />
            <mxPoint x="1460" y="520.14" as="targetPoint" />
            <Array as="points">
              <mxPoint x="1430" y="520.14" />
            </Array>
          </mxGeometry>
        </mxCell>
        <mxCell id="SPgHDlQlOfWEkfmcVzRH-31" value="" style="edgeStyle=orthogonalEdgeStyle;rounded=0;orthogonalLoop=1;jettySize=auto;html=1;entryX=0;entryY=0.5;entryDx=0;entryDy=0;" edge="1" parent="1">
          <mxGeometry relative="1" as="geometry">
            <mxPoint x="1380" y="619" as="sourcePoint" />
            <mxPoint x="1460" y="619.48" as="targetPoint" />
            <Array as="points">
              <mxPoint x="1430" y="619.48" />
            </Array>
          </mxGeometry>
        </mxCell>
        <mxCell id="SPgHDlQlOfWEkfmcVzRH-32" value="" style="edgeStyle=orthogonalEdgeStyle;rounded=0;orthogonalLoop=1;jettySize=auto;html=1;entryX=0;entryY=0.5;entryDx=0;entryDy=0;" edge="1" parent="1">
          <mxGeometry relative="1" as="geometry">
            <mxPoint x="1380" y="709.71" as="sourcePoint" />
            <mxPoint x="1460" y="710.19" as="targetPoint" />
            <Array as="points">
              <mxPoint x="1430" y="710.19" />
            </Array>
          </mxGeometry>
        </mxCell>
      </root>
    </mxGraphModel>
  </diagram>
</mxfile>
